<?xml version="1.0" encoding="UTF-8"?>
<svg enable-background="new 0 0 191 210" version="1.1" viewBox="0 0 191 210" xml:space="preserve" xmlns="http://www.w3.org/2000/svg">
<style type="text/css">
	.st0{display:none;fill:#FFFFFF;stroke:#000000;}
</style>

<rect class="st0" x="320.9" y="718" width="11" height="35"/>
<path d="m95.6 19c-23.6 0-42.7 19.1-42.7 42.7v16c-8.3 1.5-16.6 3.5-16.6 6.1v83.6s0 2.3 2.6 3.4c9.4 3.8 46.4 16.9 54.9 19.9 1.1 0.4 1.4 0.4 1.7 0.4 0.4 0 0.6 0 1.7-0.4 8.5-3 45.6-16.1 55-19.9 2.4-1 2.5-3.3 2.5-3.3v-83.7c0-2.6-8.2-4.7-16.5-6.1v-16c0-23.6-19.1-42.7-42.6-42.7zm0 20.4c13.9 0 22.3 8.4 22.3 22.3v13.9c-15.6-1.1-28.9-1.1-44.6 0v-13.9c0-13.9 8.4-22.3 22.3-22.3zm-0.1 56.7c19.4 0 35.7 1.5 35.7 4.2v52.1c0 0.8-0.1 0.9-0.8 1.2s-33.1 12-33.1 12-1.3 0.4-1.7 0.4-1.7-0.5-1.7-0.5-32.4-11.7-33.1-12-0.8-0.4-0.8-1.2v-52.1c-0.2-2.7 16.1-4.1 35.5-4.1z"/>
</svg>
